<?xml version="1.0" encoding="UTF-8" standalone="no"?>
<!-- Created with Inkscape (http://www.inkscape.org/) -->

<svg
   width="480"
   height="300"
   viewBox="0 0 127 79.375"
   version="1.1"
   id="svg1"
   xmlns="http://www.w3.org/2000/svg"
   xmlns:svg="http://www.w3.org/2000/svg">
  <defs
     id="defs1">
    <rect
       x="222.48138"
       y="300.49432"
       width="224.64841"
       height="88.12574"
       id="rect20" />
    <rect
       x="174.80679"
       y="301.939"
       width="463.74365"
       height="118.46411"
       id="rect2" />
    <rect
       x="174.80679"
       y="301.939"
       width="463.74365"
       height="118.46411"
       id="rect3" />
    <rect
       x="174.80679"
       y="301.939"
       width="463.74365"
       height="118.46411"
       id="rect4" />
    <rect
       x="174.80679"
       y="301.939"
       width="463.74365"
       height="118.46411"
       id="rect5" />
    <rect
       x="174.80679"
       y="301.939"
       width="463.74365"
       height="118.46411"
       id="rect6" />
    <rect
       x="174.80679"
       y="301.939"
       width="463.74365"
       height="118.46411"
       id="rect7" />
    <rect
       x="174.80679"
       y="301.939"
       width="463.74365"
       height="118.46411"
       id="rect8" />
    <rect
       x="174.80679"
       y="301.939"
       width="463.74365"
       height="118.46411"
       id="rect9" />
  </defs>
  <g
     id="layer1">
    <path
       style="fill:none;fill-opacity:1;stroke:#000000;stroke-width:0.2;stroke-linecap:butt;stroke-linejoin:miter;stroke-dasharray:none;stroke-opacity:0.643137"
       d="m 114.97979,9.0491702 h -2.16537"
       id="path18-6" />
    <path
       style="fill:#000000;fill-opacity:0;stroke:#000000;stroke-width:0.119961;stroke-linecap:round;stroke-linejoin:round;stroke-dasharray:none;stroke-opacity:0.643137"
       d="m 100.64586,35.45636 2.12076,2.12074"
       id="path1-5-7-1" />
    <path
       style="fill:#000000;fill-opacity:0;stroke:#000000;stroke-width:0.119961;stroke-linecap:round;stroke-linejoin:round;stroke-dasharray:none;stroke-opacity:0.643137"
       d="m 95.030921,35.45636 2.12076,2.12074"
       id="path1-5-7-9" />
    <path
       style="fill:#000000;fill-opacity:0;stroke:#000000;stroke-width:0.119961;stroke-linecap:round;stroke-linejoin:round;stroke-dasharray:none;stroke-opacity:0.643137"
       d="m 75.455101,35.45636 2.12075,2.12074"
       id="path1-5-5" />
    <path
       style="fill:#000000;fill-opacity:0;stroke:#000000;stroke-width:0.119961;stroke-linecap:round;stroke-linejoin:round;stroke-dasharray:none;stroke-opacity:0.643137"
       d="m 77.546651,35.42794 -2.06235,2.17758"
       id="path2-5-9" />
    <path
       style="fill:#000000;fill-opacity:0;stroke:#000000;stroke-width:0.119961;stroke-linecap:round;stroke-linejoin:round;stroke-dasharray:none;stroke-opacity:0.643137"
       d="m 75.455101,2.9248302 2.12075,2.12074"
       id="path1-5-8" />
    <path
       style="fill:#000000;fill-opacity:0;stroke:#000000;stroke-width:0.119961;stroke-linecap:round;stroke-linejoin:round;stroke-dasharray:none;stroke-opacity:0.643137"
       d="m 77.546651,2.8964102 -2.06235,2.17758"
       id="path2-5-3" />
    <path
       style="fill:#000000;fill-opacity:0;stroke:#000000;stroke-width:0.119961;stroke-linecap:round;stroke-linejoin:round;stroke-dasharray:none;stroke-opacity:0.643137"
       d="m 49.468418,33.53164 2.12075,2.12074"
       id="path1-5-4" />
    <path
       style="fill:#000000;fill-opacity:0;stroke:#000000;stroke-width:0.119961;stroke-linecap:round;stroke-linejoin:round;stroke-dasharray:none;stroke-opacity:0.643137"
       d="m 49.446968,27.8398 2.12076,2.12074"
       id="path1-5" />
    <path
       style="fill:#000000;fill-opacity:0;stroke:#000000;stroke-width:0.119961;stroke-linecap:round;stroke-linejoin:round;stroke-dasharray:none;stroke-opacity:0.643137"
       d="m 51.538518,27.81138 -2.06234,2.17758"
       id="path2-5" />
    <path
       style="fill:none;fill-opacity:1;stroke:#000000;stroke-width:0.2;stroke-linecap:square;stroke-linejoin:miter;stroke-dasharray:none;stroke-opacity:0.643911"
       d="m 85.085111,36.5165 -12.77436,-0.024"
       id="path16-5" />
    <path
       style="-inkscape-font-specification:Tahoma;fill:#c3c3c3;fill-opacity:1;stroke:#000000;stroke-width:0.3;stroke-linecap:square;stroke-linejoin:miter;stroke-dasharray:none;stroke-opacity:1"
       d="m 61.240431,37.10662 c -2.35957,0 -4.369593,-0.24032 -6.030053,-0.72099 -1.64588,-0.49522 -3.19709,-1.09967 -4.65363,-1.81337 v -5.41827 0 c 1.42742,1.34 3.35003,2.38141 5.15613,3.12424 1.806113,0.72827 3.546673,1.09239 5.221693,1.09239 2.38872,0 4.19482,-0.49522 5.4183,-1.48565 1.2235,-1.005 1.83525,-2.32317 1.83525,-3.95447 0,-1.29632 -0.32044,-2.3523 -0.96132,-3.16795 -0.64088,-0.81564 -1.66045,-1.42011 -3.05872,-1.81337 -1.00501,-0.2913 -1.92262,-0.53163 -2.75286,-0.72099 -0.83023,-0.18934 -1.87165,-0.44424 -3.12426,-0.76468 -1.121533,-0.29129 -2.126543,-0.66271 -3.015033,-1.11423 -0.88848,-0.45152 -1.67502,-1.04141 -2.35958,-1.76968 -0.67002,-0.7137 -1.19436,-1.55119 -1.57306,-2.51251 -0.36414,-0.97587 -0.54621,-2.0974 -0.54621,-3.36458 0,-2.63631 1.02686,-4.8429498 3.08057,-6.6199098 2.05372,-1.79154 4.675493,-2.6873 7.865293,-2.6873 1.82067,0 3.53938,0.18207 5.15614,0.54619 1.63131,0.36415 3.13883,0.88121 4.52254,1.55121 V 10.67065 l -0.005,0.0339 c -1.03414,-0.9467398 -2.68243,-1.8034798 -4.29919,-2.5025998 -1.61675,-0.71371 -3.31361,-1.07056 -5.09058,-1.07056 -2.01002,0 -3.63406,0.47337 -4.872113,1.42012 -1.23806,0.93218 -1.85709,2.1629498 -1.85709,3.6922898 0,1.38371 0.36413,2.4834 1.0924,3.29904 0.72828,0.81565 1.784273,1.41284 3.167983,1.79154 0.91762,0.2476 2.03913,0.53161 3.36458,0.85205 1.32545,0.30588 2.42515,0.58989 3.29906,0.85207 2.24306,0.68457 3.88166,1.7187 4.9158,3.1024 1.03414,1.38371 1.55122,3.08783 1.55122,5.11241 0,1.26718 -0.26218,2.51981 -0.78654,3.75784 -0.50978,1.23805 -1.23078,2.28676 -2.16295,3.14611 -1.04869,0.94674 -2.23577,1.67501 -3.56122,2.18479 -1.31089,0.50978 -2.95678,0.76468 -4.93767,0.76468 z"
       id="text3"
       aria-label="S" />
    <path
       style="fill:#000000;fill-opacity:0;stroke:#000000;stroke-width:0.119961;stroke-linecap:round;stroke-linejoin:round;stroke-dasharray:none;stroke-opacity:0.643137"
       d="m 51.559968,33.50322 -2.06235,2.17758"
       id="path2-5-2" />
    <path
       style="-inkscape-font-specification:Tahoma;fill:#c3c3c3;fill-opacity:1;stroke:#000000;stroke-width:0.3;stroke-linecap:round;stroke-linejoin:round;stroke-dasharray:none;stroke-opacity:1"
       d="M 101.70624,36.51673 H 96.091301 L 85.779031,23.58277 h -4.93765 v 12.93396 h -4.32591 V 3.9852002 h 8.38965 q 2.79653,0 4.67547,0.30586 1.90077,0.30588 3.60493,1.42012 1.70413,1.09239 2.6873,2.81839 1.00501,1.7259698 1.00501,4.2821898 0,3.58305 -1.81339,5.98631 -1.81338,2.40327 -4.93766,3.56122 z M 92.355291,13.13947 q 0,-1.42011 -0.5025,-2.5125 -0.50251,-1.1142498 -1.55122,-1.8133898 -0.91762,-0.61173 -2.1411,-0.85207 -1.2235,-0.26216 -3.03688,-0.26216 h -4.28221 V 19.97786 h 3.80156 q 1.85708,0 3.34274,-0.32772 1.48567,-0.32771 2.53438,-1.35457 0.93945,-0.91761 1.37642,-2.18479 0.45881,-1.26718 0.45881,-2.97131 z"
       id="text4"
       aria-label="R" />
    <path
       style="fill:#000000;fill-opacity:0;stroke:#000000;stroke-width:0.119961;stroke-linecap:round;stroke-linejoin:round;stroke-dasharray:none;stroke-opacity:0.643137"
       d="m 102.73742,35.42794 -2.06235,2.17758"
       id="path2-5-7-6" />
    <path
       style="fill:#000000;fill-opacity:0;stroke:#000000;stroke-width:0.119961;stroke-linecap:round;stroke-linejoin:round;stroke-dasharray:none;stroke-opacity:0.643137"
       d="m 97.122471,35.42794 -2.06234,2.17758"
       id="path2-5-7-9" />
    <path
       style="fill:#000000;fill-opacity:0;stroke:#000000;stroke-width:0.119961;stroke-linecap:round;stroke-linejoin:round;stroke-dasharray:none;stroke-opacity:0.643137"
       d="m 79.781001,35.45636 2.12075,2.12074"
       id="path1-5-7" />
    <path
       style="fill:#000000;fill-opacity:0;stroke:#000000;stroke-width:0.119961;stroke-linecap:round;stroke-linejoin:round;stroke-dasharray:none;stroke-opacity:0.643137"
       d="m 81.872551,35.42794 -2.06235,2.17758"
       id="path2-5-7" />
    <path
       style="-inkscape-font-specification:Tahoma;fill:#c3c3c3;fill-opacity:1;stroke:#000000;stroke-width:0.199999;stroke-linecap:round;stroke-linejoin:round;stroke-dasharray:none;stroke-opacity:1"
       d="M 110.6206,69.17918 V 7.3060702 h -6.2678 v -3.32087 h 16.86152 v 3.32087 h -6.2678 V 69.17918 Z"
       id="text5"
       aria-label="I" />
    <path
       style="-inkscape-font-specification:Tahoma;fill:#c3c3c3;fill-opacity:1;stroke:#000000;stroke-width:0.3;stroke-linecap:round;stroke-linejoin:round;stroke-dasharray:none;stroke-opacity:1"
       d="M 74.455091,73.947457 85.422801,41.41593 h 5.33091 l 10.967709,32.531527 h -4.566229 l -2.94949,-9.088737 h -12.43153 l -2.94947,9.088737 z M 93.004051,61.16643 87.979011,45.8292 82.975821,61.16643 Z"
       id="text7"
       aria-label="A" />
    <path
       style="fill:none;fill-opacity:1;stroke:#000000;stroke-width:0.2;stroke-linecap:square;stroke-linejoin:miter;stroke-dasharray:none;stroke-opacity:0.643911"
       d="m 105.18953,73.977967 -11.643289,-0.024"
       id="path81-2" />
    <ellipse
       style="fill:none;fill-opacity:1;stroke:#000000;stroke-width:0.2;stroke-linecap:square;stroke-linejoin:miter;stroke-dasharray:none;stroke-opacity:0.643137"
       id="path11"
       cx="60.28838"
       cy="12.377905"
       rx="5.0340405"
       ry="4.8988986" />
    <ellipse
       style="fill:none;fill-opacity:1;stroke:#000000;stroke-width:0.2;stroke-linecap:square;stroke-linejoin:miter;stroke-dasharray:none;stroke-opacity:0.643137"
       id="ellipse11"
       cx="63.155193"
       cy="27.87056"
       rx="5.0340405"
       ry="4.8988986" />
    <path
       style="fill:none;fill-opacity:1;stroke:#000000;stroke-width:0.2;stroke-linecap:square;stroke-linejoin:miter;stroke-dasharray:none;stroke-opacity:0.643137"
       d="m 60.214351,12.15444 6.21142,2.24566"
       id="path13" />
    <path
       style="fill:none;fill-opacity:1;stroke:#000000;stroke-width:0.2;stroke-linecap:square;stroke-linejoin:miter;stroke-dasharray:none;stroke-opacity:0.643911"
       d="m 50.568738,23.8816 -0.024,15.96306"
       id="path16" />
    <path
       style="fill:none;fill-opacity:1;stroke:#000000;stroke-width:0.2;stroke-linecap:square;stroke-linejoin:miter;stroke-dasharray:none;stroke-opacity:0.643137"
       d="M 71.433601,0.10015024 71.409601,16.06321"
       id="path17" />
    <path
       style="fill:none;fill-opacity:1;stroke:#000000;stroke-width:0.2;stroke-linecap:square;stroke-linejoin:miter;stroke-dasharray:none;stroke-opacity:0.643911"
       d="M 104.0625,36.5165 92.419211,36.4925"
       id="path18" />
    <path
       style="fill:none;fill-opacity:1;stroke:#000000;stroke-width:0.2;stroke-linecap:square;stroke-linejoin:miter;stroke-dasharray:none;stroke-opacity:0.643911"
       d="M 76.532791,0.10683024 76.522591,41.05761"
       id="path19" />
    <path
       style="fill:none;fill-opacity:1;stroke:#000000;stroke-width:0.2;stroke-linecap:square;stroke-linejoin:miter;stroke-dasharray:none;stroke-opacity:0.643137"
       d="m 72.733221,3.9777002 27.08694,0.015"
       id="path20" />
    <path
       style="fill:#000000;fill-opacity:0;stroke:#000000;stroke-width:0.119961;stroke-linecap:round;stroke-linejoin:round;stroke-dasharray:none;stroke-opacity:0.643137"
       d="m 70.394981,4.4152302 2.12076,2.12074"
       id="path1" />
    <path
       style="fill:#000000;fill-opacity:0;stroke:#000000;stroke-width:0.119961;stroke-linecap:round;stroke-linejoin:round;stroke-dasharray:none;stroke-opacity:0.643137"
       d="m 72.486541,4.3868102 -2.06235,2.17758"
       id="path2" />
    <path
       style="fill:#000000;fill-opacity:0;stroke:#000000;stroke-width:0.119961;stroke-linecap:round;stroke-linejoin:round;stroke-dasharray:none;stroke-opacity:0.643137"
       d="m 70.361241,9.6102802 2.12076,2.1207398"
       id="path1-2" />
    <path
       style="fill:#000000;fill-opacity:0;stroke:#000000;stroke-width:0.119961;stroke-linecap:round;stroke-linejoin:round;stroke-dasharray:none;stroke-opacity:0.643137"
       d="M 72.452801,9.5818602 70.390451,11.75944"
       id="path2-7" />
    <path
       style="fill:none;fill-opacity:1;stroke:#000000;stroke-width:0.2;stroke-linecap:butt;stroke-linejoin:miter;stroke-dasharray:none;stroke-opacity:0.643137"
       d="M 114.97979,10.10751 H 113.5915"
       id="path3" />
    <path
       style="fill:none;fill-opacity:1;stroke:#000000;stroke-width:0.2;stroke-linecap:butt;stroke-linejoin:miter;stroke-dasharray:none;stroke-opacity:0.643137"
       d="M 114.97979,11.16585 H 113.5915"
       id="path4" />
    <path
       style="fill:none;fill-opacity:1;stroke:#000000;stroke-width:0.2;stroke-linecap:butt;stroke-linejoin:miter;stroke-dasharray:none;stroke-opacity:0.643137"
       d="M 114.97979,12.22419 H 113.5915"
       id="path5" />
    <path
       style="fill:none;fill-opacity:1;stroke:#000000;stroke-width:0.2;stroke-linecap:butt;stroke-linejoin:miter;stroke-dasharray:none;stroke-opacity:0.643137"
       d="M 114.97979,13.28253 H 113.5915"
       id="path6" />
    <path
       style="fill:none;fill-opacity:1;stroke:#000000;stroke-width:0.2;stroke-linecap:butt;stroke-linejoin:miter;stroke-dasharray:none;stroke-opacity:0.643137"
       d="m 114.97979,14.34087 h -2.16537"
       id="path7" />
    <path
       style="fill:none;fill-opacity:1;stroke:#000000;stroke-width:0.2;stroke-linecap:butt;stroke-linejoin:miter;stroke-dasharray:none;stroke-opacity:0.643137"
       d="M 114.97979,15.39921 H 113.5915"
       id="path8" />
    <path
       style="fill:none;fill-opacity:1;stroke:#000000;stroke-width:0.2;stroke-linecap:butt;stroke-linejoin:miter;stroke-dasharray:none;stroke-opacity:0.643137"
       d="M 114.97979,16.45755 H 113.5915"
       id="path9" />
    <path
       style="fill:none;fill-opacity:1;stroke:#000000;stroke-width:0.2;stroke-linecap:butt;stroke-linejoin:miter;stroke-dasharray:none;stroke-opacity:0.643137"
       d="M 114.97979,17.51589 H 113.5915"
       id="path10" />
    <path
       style="fill:none;fill-opacity:1;stroke:#000000;stroke-width:0.2;stroke-linecap:butt;stroke-linejoin:miter;stroke-dasharray:none;stroke-opacity:0.643137"
       d="M 114.97979,18.57423 H 113.5915"
       id="path14" />
    <path
       style="fill:none;fill-opacity:1;stroke:#000000;stroke-width:0.2;stroke-linecap:butt;stroke-linejoin:miter;stroke-dasharray:none;stroke-opacity:0.643137"
       d="m 114.97979,19.63257 h -2.16537"
       id="path15" />
    <path
       style="fill:none;fill-opacity:1;stroke:#000000;stroke-width:0.2;stroke-linecap:butt;stroke-linejoin:miter;stroke-dasharray:none;stroke-opacity:0.643137"
       d="M 114.97979,20.69091 H 113.5915"
       id="path21" />
    <path
       style="fill:none;fill-opacity:1;stroke:#000000;stroke-width:0.2;stroke-linecap:butt;stroke-linejoin:miter;stroke-dasharray:none;stroke-opacity:0.643137"
       d="M 114.97979,21.74925 H 113.5915"
       id="path22" />
    <path
       style="fill:none;fill-opacity:1;stroke:#000000;stroke-width:0.2;stroke-linecap:butt;stroke-linejoin:miter;stroke-dasharray:none;stroke-opacity:0.643137"
       d="M 114.97979,22.80759 H 113.5915"
       id="path23" />
    <path
       style="fill:none;fill-opacity:1;stroke:#000000;stroke-width:0.2;stroke-linecap:butt;stroke-linejoin:miter;stroke-dasharray:none;stroke-opacity:0.643137"
       d="M 114.97979,23.86593 H 113.5915"
       id="path25" />
    <path
       style="fill:none;fill-opacity:1;stroke:#000000;stroke-width:0.2;stroke-linecap:butt;stroke-linejoin:miter;stroke-dasharray:none;stroke-opacity:0.643137"
       d="m 114.97979,24.92427 h -2.16537"
       id="path26" />
    <path
       style="fill:none;fill-opacity:1;stroke:#000000;stroke-width:0.2;stroke-linecap:butt;stroke-linejoin:miter;stroke-dasharray:none;stroke-opacity:0.643137"
       d="M 114.97979,25.98261 H 113.5915"
       id="path27" />
    <path
       style="fill:none;fill-opacity:1;stroke:#000000;stroke-width:0.2;stroke-linecap:butt;stroke-linejoin:miter;stroke-dasharray:none;stroke-opacity:0.643137"
       d="M 114.97979,27.04095 H 113.5915"
       id="path28" />
    <path
       style="fill:none;fill-opacity:1;stroke:#000000;stroke-width:0.2;stroke-linecap:butt;stroke-linejoin:miter;stroke-dasharray:none;stroke-opacity:0.643137"
       d="M 114.97979,28.09929 H 113.5915"
       id="path29" />
    <path
       style="fill:none;fill-opacity:1;stroke:#000000;stroke-width:0.2;stroke-linecap:butt;stroke-linejoin:miter;stroke-dasharray:none;stroke-opacity:0.643137"
       d="M 114.97979,29.15763 H 113.5915"
       id="path30" />
    <path
       style="fill:none;fill-opacity:1;stroke:#000000;stroke-width:0.2;stroke-linecap:butt;stroke-linejoin:miter;stroke-dasharray:none;stroke-opacity:0.643137"
       d="m 114.97979,30.21597 h -2.16537"
       id="path31" />
    <path
       style="fill:none;fill-opacity:1;stroke:#000000;stroke-width:0.2;stroke-linecap:butt;stroke-linejoin:miter;stroke-dasharray:none;stroke-opacity:0.643137"
       d="M 114.97979,31.27431 H 113.5915"
       id="path32" />
    <path
       style="fill:#000000;fill-opacity:0;stroke:#000000;stroke-width:0.119961;stroke-linecap:round;stroke-linejoin:round;stroke-dasharray:none;stroke-opacity:0.643137"
       d="m 49.468418,70.57354 2.12075,2.120737"
       id="path33" />
    <path
       style="fill:#000000;fill-opacity:0;stroke:#000000;stroke-width:0.119961;stroke-linecap:round;stroke-linejoin:round;stroke-dasharray:none;stroke-opacity:0.643137"
       d="m 49.446968,64.8817 2.12076,2.12074"
       id="path34" />
    <path
       style="fill:#000000;fill-opacity:0;stroke:#000000;stroke-width:0.119961;stroke-linecap:round;stroke-linejoin:round;stroke-dasharray:none;stroke-opacity:0.643137"
       d="m 51.538518,64.85328 -2.06234,2.17758"
       id="path35" />
    <path
       style="-inkscape-font-specification:Tahoma;fill:#c3c3c3;fill-opacity:1;stroke:#000000;stroke-width:0.3;stroke-linecap:square;stroke-linejoin:miter;stroke-dasharray:none;stroke-opacity:1"
       d="m 61.240431,74.148517 c -2.35957,0 -4.369593,-0.24032 -6.030053,-0.72099 -1.64588,-0.49522 -3.19709,-1.09968 -4.65363,-1.813367 v -5.41827 0 c 1.42742,1.33999 3.35003,2.38141 5.15613,3.12423 1.806113,0.72827 3.546673,1.0924 5.221693,1.0924 2.38872,0 4.19482,-0.49522 5.4183,-1.48565 1.2235,-1.00501 1.83525,-2.32317 1.83525,-3.95448 0,-1.29631 -0.32044,-2.3523 -0.96132,-3.16794 -0.64088,-0.81565 -1.66045,-1.42011 -3.05872,-1.81337 -1.00501,-0.29131 -1.92262,-0.53163 -2.75286,-0.72099 -0.83023,-0.18934 -1.87164,-0.44424 -3.12426,-0.76468 -1.121533,-0.29129 -2.126543,-0.66271 -3.015033,-1.11423 -0.88848,-0.45152 -1.67502,-1.04141 -2.35958,-1.76968 -0.67001,-0.7137 -1.19436,-1.5512 -1.57306,-2.51251 -0.36414,-0.97587 -0.54621,-2.0974 -0.54621,-3.36458 0,-2.63631 1.02686,-4.84296 3.08057,-6.61992 2.05372,-1.79153 4.675493,-2.68729 7.865293,-2.68729 1.82067,0 3.53938,0.18206 5.15614,0.54619 1.63132,0.36414 3.13883,0.8812 4.52254,1.55121 v 5.17795 l -0.005,0.0339 c -1.03414,-0.94675 -2.68243,-1.80348 -4.29918,-2.5026 -1.61676,-0.71371 -3.31362,-1.07056 -5.09059,-1.07056 -2.01002,0 -3.63406,0.47337 -4.872113,1.42011 -1.23806,0.93219 -1.85709,2.16296 -1.85709,3.6923 0,1.3837 0.36413,2.48339 1.0924,3.29904 0.72828,0.81564 1.784273,1.41283 3.167983,1.79153 0.91762,0.24761 2.03913,0.53162 3.36458,0.85206 1.32545,0.30588 2.42515,0.58989 3.29906,0.85207 2.24307,0.68456 3.88166,1.7187 4.9158,3.1024 1.03414,1.3837 1.55122,3.08783 1.55122,5.11241 0,1.26718 -0.26218,2.5198 -0.78654,3.75784 -0.50978,1.23805 -1.23078,2.28675 -2.16295,3.1461 -1.04869,0.94675 -2.23577,1.675017 -3.56122,2.184797 -1.31089,0.50978 -2.95678,0.76467 -4.93767,0.76467 z"
       id="path36"
       aria-label="S" />
    <path
       style="fill:#000000;fill-opacity:0;stroke:#000000;stroke-width:0.119961;stroke-linecap:round;stroke-linejoin:round;stroke-dasharray:none;stroke-opacity:0.643137"
       d="m 51.559968,70.54512 -2.06235,2.177577"
       id="path37" />
    <ellipse
       style="fill:none;fill-opacity:1;stroke:#000000;stroke-width:0.2;stroke-linecap:square;stroke-linejoin:miter;stroke-dasharray:none;stroke-opacity:0.643137"
       id="ellipse37"
       cx="60.28838"
       cy="49.419174"
       rx="5.0340405"
       ry="4.8988986" />
    <ellipse
       style="fill:none;fill-opacity:1;stroke:#000000;stroke-width:0.2;stroke-linecap:square;stroke-linejoin:miter;stroke-dasharray:none;stroke-opacity:0.643137"
       id="ellipse38"
       cx="63.155193"
       cy="64.911728"
       rx="5.0340405"
       ry="4.8988986" />
    <path
       style="fill:none;fill-opacity:1;stroke:#000000;stroke-width:0.2;stroke-linecap:square;stroke-linejoin:miter;stroke-dasharray:none;stroke-opacity:0.643137"
       d="m 60.214351,49.19634 6.21142,2.24566"
       id="path39" />
    <path
       style="fill:none;fill-opacity:1;stroke:#000000;stroke-width:0.2;stroke-linecap:square;stroke-linejoin:miter;stroke-dasharray:none;stroke-opacity:0.643911"
       d="m 50.568738,60.9235 -0.024,15.963057"
       id="path40" />
    <path
       style="fill:none;fill-opacity:1;stroke:#000000;stroke-width:0.2;stroke-linecap:square;stroke-linejoin:miter;stroke-dasharray:none;stroke-opacity:0.643137"
       d="m 71.433601,37.14205 -0.024,15.96306"
       id="path41" />
    <path
       style="fill:#000000;fill-opacity:0;stroke:#000000;stroke-width:0.119961;stroke-linecap:round;stroke-linejoin:round;stroke-dasharray:none;stroke-opacity:0.643137"
       d="m 70.394981,41.45713 2.12076,2.12074"
       id="path42" />
    <path
       style="fill:#000000;fill-opacity:0;stroke:#000000;stroke-width:0.119961;stroke-linecap:round;stroke-linejoin:round;stroke-dasharray:none;stroke-opacity:0.643137"
       d="m 72.486541,41.42871 -2.06235,2.17758"
       id="path43" />
    <path
       style="fill:#000000;fill-opacity:0;stroke:#000000;stroke-width:0.119961;stroke-linecap:round;stroke-linejoin:round;stroke-dasharray:none;stroke-opacity:0.643137"
       d="m 70.361241,46.65218 2.12076,2.12074"
       id="path44" />
    <path
       style="fill:#000000;fill-opacity:0;stroke:#000000;stroke-width:0.119961;stroke-linecap:round;stroke-linejoin:round;stroke-dasharray:none;stroke-opacity:0.643137"
       d="m 72.452801,46.62376 -2.06235,2.17758"
       id="path45" />
    <path
       style="fill:none;fill-opacity:1;stroke:#000000;stroke-width:0.2;stroke-linecap:butt;stroke-linejoin:miter;stroke-dasharray:none;stroke-opacity:0.643137"
       d="M 114.97979,32.33265 H 113.5915"
       id="path46" />
    <path
       style="fill:none;fill-opacity:1;stroke:#000000;stroke-width:0.2;stroke-linecap:butt;stroke-linejoin:miter;stroke-dasharray:none;stroke-opacity:0.643137"
       d="M 114.97979,33.39099 H 113.5915"
       id="path47" />
    <path
       style="fill:none;fill-opacity:1;stroke:#000000;stroke-width:0.2;stroke-linecap:butt;stroke-linejoin:miter;stroke-dasharray:none;stroke-opacity:0.643137"
       d="M 114.97979,34.44933 H 113.5915"
       id="path48" />
    <path
       style="fill:none;fill-opacity:1;stroke:#000000;stroke-width:0.2;stroke-linecap:butt;stroke-linejoin:miter;stroke-dasharray:none;stroke-opacity:0.643137"
       d="m 114.97979,35.50767 h -2.16537"
       id="path49" />
    <path
       style="fill:none;fill-opacity:1;stroke:#000000;stroke-width:0.2;stroke-linecap:butt;stroke-linejoin:miter;stroke-dasharray:none;stroke-opacity:0.643137"
       d="M 114.97979,36.56601 H 113.5915"
       id="path50" />
    <path
       style="fill:none;fill-opacity:1;stroke:#000000;stroke-width:0.2;stroke-linecap:butt;stroke-linejoin:miter;stroke-dasharray:none;stroke-opacity:0.643137"
       d="M 114.97979,37.62435 H 113.5915"
       id="path51" />
    <path
       style="fill:none;fill-opacity:1;stroke:#000000;stroke-width:0.2;stroke-linecap:butt;stroke-linejoin:miter;stroke-dasharray:none;stroke-opacity:0.643137"
       d="M 114.97979,38.68269 H 113.5915"
       id="path52" />
    <path
       style="fill:none;fill-opacity:1;stroke:#000000;stroke-width:0.2;stroke-linecap:butt;stroke-linejoin:miter;stroke-dasharray:none;stroke-opacity:0.643137"
       d="M 114.97979,39.74103 H 113.5915"
       id="path53" />
    <path
       style="fill:none;fill-opacity:1;stroke:#000000;stroke-width:0.2;stroke-linecap:butt;stroke-linejoin:miter;stroke-dasharray:none;stroke-opacity:0.643137"
       d="m 114.97979,40.79937 h -2.16537"
       id="path54" />
    <path
       style="fill:none;fill-opacity:1;stroke:#000000;stroke-width:0.2;stroke-linecap:butt;stroke-linejoin:miter;stroke-dasharray:none;stroke-opacity:0.643137"
       d="M 114.97979,41.85771 H 113.5915"
       id="path55" />
    <path
       style="fill:none;fill-opacity:1;stroke:#000000;stroke-width:0.2;stroke-linecap:butt;stroke-linejoin:miter;stroke-dasharray:none;stroke-opacity:0.643137"
       d="M 114.97979,42.91605 H 113.5915"
       id="path56" />
    <path
       style="fill:none;fill-opacity:1;stroke:#000000;stroke-width:0.2;stroke-linecap:butt;stroke-linejoin:miter;stroke-dasharray:none;stroke-opacity:0.643137"
       d="M 114.97979,43.97439 H 113.5915"
       id="path57" />
    <path
       style="fill:none;fill-opacity:1;stroke:#000000;stroke-width:0.2;stroke-linecap:butt;stroke-linejoin:miter;stroke-dasharray:none;stroke-opacity:0.643137"
       d="M 114.97979,45.03273 H 113.5915"
       id="path58" />
    <path
       style="fill:none;fill-opacity:1;stroke:#000000;stroke-width:0.2;stroke-linecap:butt;stroke-linejoin:miter;stroke-dasharray:none;stroke-opacity:0.643137"
       d="m 114.97979,46.09107 h -2.16537"
       id="path59" />
    <path
       style="fill:none;fill-opacity:1;stroke:#000000;stroke-width:0.2;stroke-linecap:butt;stroke-linejoin:miter;stroke-dasharray:none;stroke-opacity:0.643137"
       d="M 114.97979,47.14941 H 113.5915"
       id="path60" />
    <path
       style="fill:none;fill-opacity:1;stroke:#000000;stroke-width:0.2;stroke-linecap:butt;stroke-linejoin:miter;stroke-dasharray:none;stroke-opacity:0.643137"
       d="M 114.97979,48.20775 H 113.5915"
       id="path61" />
    <path
       style="fill:none;fill-opacity:1;stroke:#000000;stroke-width:0.2;stroke-linecap:butt;stroke-linejoin:miter;stroke-dasharray:none;stroke-opacity:0.643137"
       d="M 114.97979,49.26609 H 113.5915"
       id="path62" />
    <path
       style="fill:none;fill-opacity:1;stroke:#000000;stroke-width:0.2;stroke-linecap:butt;stroke-linejoin:miter;stroke-dasharray:none;stroke-opacity:0.643137"
       d="M 114.97979,50.32443 H 113.5915"
       id="path63" />
    <path
       style="fill:none;fill-opacity:1;stroke:#000000;stroke-width:0.2;stroke-linecap:butt;stroke-linejoin:miter;stroke-dasharray:none;stroke-opacity:0.643137"
       d="m 114.97979,51.38277 h -2.16537"
       id="path64" />
    <path
       style="fill:none;fill-opacity:1;stroke:#000000;stroke-width:0.2;stroke-linecap:butt;stroke-linejoin:miter;stroke-dasharray:none;stroke-opacity:0.643137"
       d="M 114.97979,52.44111 H 113.5915"
       id="path65" />
    <path
       style="fill:none;fill-opacity:1;stroke:#000000;stroke-width:0.2;stroke-linecap:butt;stroke-linejoin:miter;stroke-dasharray:none;stroke-opacity:0.643137"
       d="M 114.97979,53.49945 H 113.5915"
       id="path66" />
    <path
       style="fill:none;fill-opacity:1;stroke:#000000;stroke-width:0.2;stroke-linecap:butt;stroke-linejoin:miter;stroke-dasharray:none;stroke-opacity:0.643137"
       d="M 114.97979,54.55779 H 113.5915"
       id="path67" />
    <path
       style="fill:none;fill-opacity:1;stroke:#000000;stroke-width:0.2;stroke-linecap:butt;stroke-linejoin:miter;stroke-dasharray:none;stroke-opacity:0.643137"
       d="M 114.97979,55.61613 H 113.5915"
       id="path68" />
    <path
       style="fill:none;fill-opacity:1;stroke:#000000;stroke-width:0.2;stroke-linecap:butt;stroke-linejoin:miter;stroke-dasharray:none;stroke-opacity:0.643137"
       d="m 114.97979,56.67447 h -2.16537"
       id="path69" />
    <path
       style="fill:none;fill-opacity:1;stroke:#000000;stroke-width:0.2;stroke-linecap:butt;stroke-linejoin:miter;stroke-dasharray:none;stroke-opacity:0.643137"
       d="M 114.97979,57.73281 H 113.5915"
       id="path70" />
    <path
       style="fill:none;fill-opacity:1;stroke:#000000;stroke-width:0.2;stroke-linecap:butt;stroke-linejoin:miter;stroke-dasharray:none;stroke-opacity:0.643137"
       d="M 114.97979,58.79115 H 113.5915"
       id="path71" />
    <path
       style="fill:none;fill-opacity:1;stroke:#000000;stroke-width:0.2;stroke-linecap:butt;stroke-linejoin:miter;stroke-dasharray:none;stroke-opacity:0.643137"
       d="M 114.97979,59.84949 H 113.5915"
       id="path72" />
    <path
       style="fill:none;fill-opacity:1;stroke:#000000;stroke-width:0.2;stroke-linecap:butt;stroke-linejoin:miter;stroke-dasharray:none;stroke-opacity:0.643137"
       d="M 114.97979,60.90783 H 113.5915"
       id="path73" />
    <path
       style="fill:none;fill-opacity:1;stroke:#000000;stroke-width:0.2;stroke-linecap:butt;stroke-linejoin:miter;stroke-dasharray:none;stroke-opacity:0.643137"
       d="m 114.97979,61.96617 h -2.16537"
       id="path74" />
    <path
       style="fill:none;fill-opacity:1;stroke:#000000;stroke-width:0.2;stroke-linecap:butt;stroke-linejoin:miter;stroke-dasharray:none;stroke-opacity:0.643137"
       d="M 114.97979,63.02451 H 113.5915"
       id="path75" />
    <path
       style="fill:none;fill-opacity:1;stroke:#000000;stroke-width:0.2;stroke-linecap:butt;stroke-linejoin:miter;stroke-dasharray:none;stroke-opacity:0.643137"
       d="M 114.97979,64.08285 H 113.5915"
       id="path76" />
    <path
       style="fill:none;fill-opacity:1;stroke:#000000;stroke-width:0.2;stroke-linecap:butt;stroke-linejoin:miter;stroke-dasharray:none;stroke-opacity:0.643137"
       d="M 114.97979,65.14119 H 113.5915"
       id="path77" />
    <path
       style="fill:none;fill-opacity:1;stroke:#000000;stroke-width:0.2;stroke-linecap:butt;stroke-linejoin:miter;stroke-dasharray:none;stroke-opacity:0.643137"
       d="M 114.97979,66.19953 H 113.5915"
       id="path78" />
    <path
       style="fill:none;fill-opacity:1;stroke:#000000;stroke-width:0.2;stroke-linecap:butt;stroke-linejoin:miter;stroke-dasharray:none;stroke-opacity:0.643137"
       d="m 114.97979,67.25787 h -2.16537"
       id="path79" />
    <path
       style="fill:none;fill-opacity:1;stroke:#000000;stroke-width:0.2;stroke-linecap:butt;stroke-linejoin:miter;stroke-dasharray:none;stroke-opacity:0.643137"
       d="M 114.97979,68.31621 H 113.5915"
       id="path80" />
    <rect
       style="fill:#c3c3c3;fill-opacity:1;stroke:#000000;stroke-width:0.2;stroke-linecap:butt;stroke-linejoin:round;stroke-dasharray:none;stroke-opacity:1"
       id="rect80"
       width="16.861431"
       height="3.3208702"
       x="104.38262"
       y="70.432892" />
    <path
       style="fill:none;fill-opacity:1;stroke:#000000;stroke-width:0.2;stroke-linecap:square;stroke-linejoin:miter;stroke-dasharray:none;stroke-opacity:0.643911"
       d="m 93.938131,41.37838 -11.64329,-0.024"
       id="path81" />
    <path
       style="fill:#c3c3c3;fill-opacity:1;stroke:#000000;stroke-width:0.2;stroke-linecap:butt;stroke-linejoin:round;stroke-dasharray:none;stroke-opacity:0.643137"
       d="M 73.224931,77.554517 86.488611,38.34353"
       id="path82" />
    <path
       style="fill:#c3c3c3;fill-opacity:1;stroke:#000000;stroke-width:0.2;stroke-linecap:butt;stroke-linejoin:round;stroke-dasharray:none;stroke-opacity:0.643137"
       d="M 102.96409,77.554517 89.700411,38.34353"
       id="path83" />
    <path
       style="fill:none;fill-opacity:1;stroke:#000000;stroke-width:0.2;stroke-linecap:square;stroke-linejoin:miter;stroke-dasharray:none;stroke-opacity:0.643911"
       d="m 82.803021,73.959457 -11.64329,-0.024"
       id="path81-4" />
    <path
       style="fill:#000000;fill-opacity:0;stroke:#000000;stroke-width:0.119961;stroke-linecap:round;stroke-linejoin:round;stroke-dasharray:none;stroke-opacity:0.643137"
       d="m 73.401531,72.887087 2.12075,2.12074"
       id="path34-0" />
    <path
       style="fill:#000000;fill-opacity:0;stroke:#000000;stroke-width:0.119961;stroke-linecap:round;stroke-linejoin:round;stroke-dasharray:none;stroke-opacity:0.643137"
       d="m 75.493081,72.858667 -2.06235,2.17758"
       id="path35-4" />
    <path
       style="fill:#000000;fill-opacity:0;stroke:#000000;stroke-width:0.119961;stroke-linecap:round;stroke-linejoin:round;stroke-dasharray:none;stroke-opacity:0.643137"
       d="m 77.766451,72.887087 2.12076,2.12074"
       id="path34-5" />
    <path
       style="fill:#000000;fill-opacity:0;stroke:#000000;stroke-width:0.119961;stroke-linecap:round;stroke-linejoin:round;stroke-dasharray:none;stroke-opacity:0.643137"
       d="m 79.858001,72.858667 -2.06234,2.17758"
       id="path35-3" />
    <path
       style="fill:#000000;fill-opacity:0;stroke:#000000;stroke-width:0.119961;stroke-linecap:round;stroke-linejoin:round;stroke-dasharray:none;stroke-opacity:0.643137"
       d="m 96.094811,72.887087 2.12076,2.12074"
       id="path34-6" />
    <path
       style="fill:#000000;fill-opacity:0;stroke:#000000;stroke-width:0.119961;stroke-linecap:round;stroke-linejoin:round;stroke-dasharray:none;stroke-opacity:0.643137"
       d="m 98.186361,72.858667 -2.06235,2.17758"
       id="path35-7" />
    <path
       style="fill:#000000;fill-opacity:0;stroke:#000000;stroke-width:0.119961;stroke-linecap:round;stroke-linejoin:round;stroke-dasharray:none;stroke-opacity:0.643137"
       d="m 100.66104,72.887087 2.12075,2.12074"
       id="path34-09" />
    <path
       style="fill:#000000;fill-opacity:0;stroke:#000000;stroke-width:0.119961;stroke-linecap:round;stroke-linejoin:round;stroke-dasharray:none;stroke-opacity:0.643137"
       d="m 102.75259,72.858667 -2.06235,2.17758"
       id="path35-1" />
    <path
       style="fill:#000000;fill-opacity:0;stroke:#000000;stroke-width:0.119961;stroke-linecap:round;stroke-linejoin:round;stroke-dasharray:none;stroke-opacity:0.643137"
       d="m 84.362421,40.35556 2.12075,2.12074"
       id="path34-3" />
    <path
       style="fill:#000000;fill-opacity:0;stroke:#000000;stroke-width:0.119961;stroke-linecap:round;stroke-linejoin:round;stroke-dasharray:none;stroke-opacity:0.643137"
       d="m 86.453971,40.32714 -2.06235,2.17758"
       id="path35-0" />
    <path
       style="fill:#000000;fill-opacity:0;stroke:#000000;stroke-width:0.119961;stroke-linecap:round;stroke-linejoin:round;stroke-dasharray:none;stroke-opacity:0.643137"
       d="m 89.693331,40.35556 2.12076,2.12074"
       id="path34-8" />
    <path
       style="fill:#000000;fill-opacity:0;stroke:#000000;stroke-width:0.119961;stroke-linecap:round;stroke-linejoin:round;stroke-dasharray:none;stroke-opacity:0.643137"
       d="m 91.784881,40.32714 -2.06235,2.17758"
       id="path35-31" />
    <path
       style="fill:none;fill-opacity:1;stroke:#000000;stroke-width:0.2;stroke-linecap:square;stroke-linejoin:miter;stroke-dasharray:none;stroke-opacity:0.643137"
       d="m 56.891568,25.87396 6.211423,2.24566"
       id="path84" />
    <path
       style="fill:none;fill-opacity:1;stroke:#000000;stroke-width:0.2;stroke-linecap:square;stroke-linejoin:miter;stroke-dasharray:none;stroke-opacity:0.643137"
       d="m 56.891568,62.72548 6.211423,2.24566"
       id="path39-1" />
    <path
       style="fill:#000000;fill-opacity:1;fill-rule:nonzero;stroke:none;stroke-width:0.278233;stroke-linejoin:miter;stroke-miterlimit:4;stroke-dasharray:none;stroke-opacity:1"
       id="path2772-6"
       d="m 36.757878,22.49621 c -10e-6,0.83771 -0.67886,1.51679 -1.51627,1.51679 l -0.005,-1.50776 z" />
    <path
       style="fill:#000000;fill-opacity:1;fill-rule:nonzero;stroke:none;stroke-width:0.155286;stroke-linejoin:miter;stroke-miterlimit:4;stroke-dasharray:none;stroke-opacity:1"
       id="path87"
       d="m 35.243838,24.01954 c -0.46753,-10e-6 -0.84654,-0.37889 -0.84654,-0.84626 l 0.84151,-0.003 z" />
  </g>
  <g
     id="layer2">
    <path
       d="M 47.062988,74.069407 A 43.669778,43.685131 0 0 1 3.3931547,30.38427 l 43.6698333,-4e-5 z"
       id="path1873-7"
       style="fill:#d7d7d7;fill-opacity:1;fill-rule:nonzero;stroke:none;stroke-width:0.278233;stroke-linejoin:miter;stroke-miterlimit:4;stroke-dasharray:none;stroke-opacity:1" />
    <path
       style="fill:#bfbfbf;fill-opacity:1;fill-rule:nonzero;stroke:none;stroke-width:0.278233;stroke-linejoin:miter;stroke-miterlimit:4;stroke-dasharray:none;stroke-opacity:1"
       id="path1875-5"
       d="M 3.3931167,30.38427 A 26.990332,26.999821 0 0 1 30.383448,3.3844402 L 30.368108,30.38427 Z" />
    <path
       d="M 47.062938,20.06967 A 16.679402,16.68527 0 0 0 30.383496,3.3844002 V 20.06967 Z"
       id="path2762-7"
       style="fill:#9e9e9e;fill-opacity:1;fill-rule:nonzero;stroke:none;stroke-width:0.278233;stroke-linejoin:miter;stroke-miterlimit:4;stroke-dasharray:none;stroke-opacity:1" />
    <path
       style="fill:#808080;fill-opacity:1;fill-rule:nonzero;stroke:none;stroke-width:0.278233;stroke-linejoin:miter;stroke-miterlimit:4;stroke-dasharray:none;stroke-opacity:1"
       id="path2764-9"
       d="m 36.751968,30.38423 a 10.310888,10.314514 0 0 0 10.31093,-10.31451 h -10.31093 l 3e-5,10.31446" />
    <path
       d="m 30.383532,24.01347 a 6.3684746,6.3707141 0 0 0 6.368466,6.37071 v -6.37071 z"
       id="path2766-0"
       style="fill:#616161;fill-opacity:1;fill-rule:nonzero;stroke:none;stroke-width:0.278233;stroke-linejoin:miter;stroke-miterlimit:4;stroke-dasharray:none;stroke-opacity:1" />
    <path
       style="fill:#404040;fill-opacity:1;fill-rule:nonzero;stroke:none;stroke-width:0.278233;stroke-linejoin:miter;stroke-miterlimit:4;stroke-dasharray:none;stroke-opacity:1"
       id="path2768-5"
       d="m 34.325868,20.06975 a 3.9423734,3.9437599 0 0 0 -3.942372,3.94375 h 3.942372 z" />
    <path
       d="m 36.751878,22.49663 a 2.4260606,2.4269137 0 0 0 -2.42605,-2.42691 v 2.42691 z"
       id="path2770-2"
       style="fill:#212121;fill-opacity:1;fill-rule:nonzero;stroke:none;stroke-width:0.278233;stroke-linejoin:miter;stroke-miterlimit:4;stroke-dasharray:none;stroke-opacity:1" />
  </g>
  <g
     id="layer3"
     style="display:inline">
    <path
       d="M 47.063008,74.069427 A 43.669778,43.685131 0 0 1 3.3931727,30.38429"
       id="path1873"
       style="fill:none;fill-opacity:1;fill-rule:nonzero;stroke:#000000;stroke-width:0.278233;stroke-linejoin:miter;stroke-miterlimit:4;stroke-dasharray:none;stroke-opacity:1" />
    <path
       style="fill:none;fill-opacity:1;fill-rule:nonzero;stroke:#000000;stroke-width:0.278233;stroke-linejoin:miter;stroke-miterlimit:4;stroke-dasharray:none;stroke-opacity:1"
       id="path1875"
       d="M 30.383467,3.3844602 A 26.990332,26.999821 0 0 0 3.3931347,30.38429" />
    <path
       d="M 47.062958,20.06969 A 16.679402,16.68527 0 0 0 30.383513,3.3844202"
       id="path2762"
       style="fill:none;fill-opacity:1;fill-rule:nonzero;stroke:#000000;stroke-width:0.278233;stroke-linejoin:miter;stroke-miterlimit:4;stroke-dasharray:none;stroke-opacity:1" />
    <path
       style="fill:none;fill-opacity:1;fill-rule:nonzero;stroke:#000000;stroke-width:0.278233;stroke-linejoin:miter;stroke-miterlimit:4;stroke-dasharray:none;stroke-opacity:1"
       id="path2764"
       d="M 36.751988,30.38425 A 10.310888,10.314514 0 0 0 47.062918,20.06974" />
    <path
       d="M 36.752018,30.3842 A 6.3684746,6.3707141 0 0 1 30.383551,24.01348"
       id="path2766"
       style="fill:none;fill-opacity:1;fill-rule:nonzero;stroke:#000000;stroke-width:0.278233;stroke-linejoin:miter;stroke-miterlimit:4;stroke-dasharray:none;stroke-opacity:1" />
    <path
       style="fill:none;fill-opacity:1;fill-rule:nonzero;stroke:#000000;stroke-width:0.278233;stroke-linejoin:miter;stroke-miterlimit:4;stroke-dasharray:none;stroke-opacity:1"
       id="path2768"
       d="m 34.325888,20.06976 a 3.9423734,3.9437599 0 0 0 -3.942375,3.94376" />
    <path
       d="m 34.325848,20.06974 a 2.4260606,2.4269137 0 0 1 2.42605,2.42691"
       id="path2770"
       style="fill:none;fill-opacity:1;fill-rule:nonzero;stroke:#000000;stroke-width:0.278233;stroke-linejoin:miter;stroke-miterlimit:4;stroke-dasharray:none;stroke-opacity:1" />
    <path
       style="fill:none;fill-opacity:1;fill-rule:nonzero;stroke:#000000;stroke-width:0.278233;stroke-linejoin:miter;stroke-miterlimit:4;stroke-dasharray:none;stroke-opacity:1"
       id="path2772"
       d="m 35.235668,24.01348 a 1.5162729,1.5168061 0 0 0 1.51627,-1.51679" />
    <path
       d="m 35.235708,24.01345 a 0.90974767,0.91006763 0 0 1 -0.90974,-0.91006"
       id="path2774"
       style="fill:none;fill-opacity:1;fill-rule:nonzero;stroke:#000000;stroke-width:0.278233;stroke-linejoin:miter;stroke-miterlimit:4;stroke-dasharray:none;stroke-opacity:1" />
    <path
       id="rect2794"
       d="m 34.325848,22.49665 h 2.4261"
       style="fill:none;fill-opacity:1;fill-rule:nonzero;stroke:#000000;stroke-width:0.214166;stroke-linejoin:miter;stroke-miterlimit:4;stroke-dasharray:none;stroke-opacity:0.643137" />
    <path
       id="rect2796"
       d="M 34.325888,24.01352 V 20.06973"
       style="fill:none;fill-opacity:1;fill-rule:nonzero;stroke:#000000;stroke-width:0.214166;stroke-linejoin:miter;stroke-miterlimit:4;stroke-dasharray:none;stroke-opacity:0.643137" />
    <path
       id="rect2798"
       d="M 36.752018,24.01348 H 30.383513"
       style="fill:none;fill-opacity:1;fill-rule:nonzero;stroke:#000000;stroke-width:0.214166;stroke-linejoin:miter;stroke-miterlimit:4;stroke-dasharray:none;stroke-opacity:0.643137" />
    <path
       id="rect2800"
       d="M 36.751988,20.06974 V 30.38429"
       style="fill:none;fill-opacity:1;fill-rule:nonzero;stroke:#000000;stroke-width:0.185489;stroke-linejoin:miter;stroke-miterlimit:4;stroke-dasharray:none;stroke-opacity:0.643137" />
    <path
       id="rect2802"
       d="M 30.383513,20.06969 H 47.063008"
       style="fill:none;fill-opacity:1;fill-rule:nonzero;stroke:#000000;stroke-width:0.185489;stroke-linejoin:miter;stroke-miterlimit:4;stroke-dasharray:none;stroke-opacity:0.643137" />
    <path
       id="rect2804"
       d="M 30.368127,30.38429 V 3.3690802"
       style="fill:none;fill-opacity:1;fill-rule:nonzero;stroke:#000000;stroke-width:0.185489;stroke-linejoin:miter;stroke-miterlimit:4;stroke-dasharray:none;stroke-opacity:0.643137" />
    <path
       id="rect2806"
       d="M 47.063008,30.38425 H 3.3931347"
       style="fill:none;fill-opacity:1;fill-rule:nonzero;stroke:#000000;stroke-width:0.185489;stroke-linejoin:miter;stroke-miterlimit:4;stroke-dasharray:none;stroke-opacity:0.643137" />
    <path
       style="fill:none;fill-opacity:1;fill-rule:nonzero;stroke:#000000;stroke-width:0.185489;stroke-linejoin:miter;stroke-miterlimit:4;stroke-dasharray:none;stroke-opacity:0.643137"
       d="M 47.063008,74.069427 H 3.3529767"
       id="path922" />
    <path
       id="path924"
       d="M 47.022848,3.3843802 H 3.3529767"
       style="fill:none;fill-opacity:1;fill-rule:nonzero;stroke:#000000;stroke-width:0.185489;stroke-linejoin:miter;stroke-miterlimit:4;stroke-dasharray:none;stroke-opacity:0.686275" />
    <path
       style="fill:none;fill-opacity:1;fill-rule:nonzero;stroke:#000000;stroke-width:0.185489;stroke-linejoin:miter;stroke-miterlimit:4;stroke-dasharray:none;stroke-opacity:0.686275"
       d="M 3.3529397,74.069477 V 3.3442802"
       id="path926" />
    <path
       id="path928"
       d="M 47.062958,74.069477 V 3.3442802"
       style="fill:none;fill-opacity:1;fill-rule:nonzero;stroke:#000000;stroke-width:0.185489;stroke-linejoin:miter;stroke-miterlimit:4;stroke-dasharray:none;stroke-opacity:0.686275" />
    <path
       d="m 34.932398,22.49672 a 0.60648512,0.60669832 0 0 0 -0.60647,0.6067"
       id="path1028"
       style="fill:none;fill-opacity:1;fill-rule:nonzero;stroke:#000000;stroke-width:0.278233;stroke-linejoin:miter;stroke-miterlimit:4;stroke-dasharray:none;stroke-opacity:1" />
  </g>
</svg>
